# xmcd
#
# Track frame offsets:
#	150
#	12281
#	30162
#	45617
#	60029
#	92501
#	111695
#	131489
#
# Disc length: 2224 seconds
#
# Revision: 0
# Processed by: cddbd v1.5.1PL2 Copyright (c) Steve Scherf et al.
# Submitted via: EasyCDDAExtractor 8.0.2.1
#
DISCID=5708ae08
DTITLE=Judas Priest - Palladium New York City 04-11-79 Disc 1
DYEAR=1979
DGENRE=Hard Rocm
TTITLE0=Hell Bent For Leather
TTITLE1=Delivering The Gods
TTITLE2=Running Wild
TTITLE3=The Ripper
TTITLE4=Beyond The Realms Of Death
TTITLE5=Diamonds And Rust
TTITLE6=White Heat, Red Hot
TTITLE7=The Sinner
EXTD=
EXTT0=
EXTT1=
EXTT2=
EXTT3=
EXTT4=
EXTT5=
EXTT6=
EXTT7=
PLAYORDER=
